<svg xmlns="http://www.w3.org/2000/svg" viewBox="0 0 24 24"><path fill="#106a90" d="M24 22.2V17h-7.1v7h5.3c1 0 1.8-.8 1.8-1.8z"/><path fill="#00b066" d="M6.7 16.3c-5.9.5-3.4 6-6.7 7.5 4.3.8 8.8-1.1 9-5.2l-2.3-2.3z"/><path fill="#1eabe6" d="M22.6 2.7c-.5-.4-1-.1-1-.1l-7 5.3c-.3 2-1.4 3.9-2.6 5.2l.8-.6 1.6-2 .1 2.6c0 .5 0 .9-.2 1.3l2.7-3.2 5.6-7.6s.3-.5 0-1zM10.2 17.2a5 5 0 0 1-1.7-.2l1 1a7 7 0 0 0 1.7-.8h-1z"/><path fill="#106a90" d="M14 9.8a10 10 0 0 1-2 3.3l.8-.6 1.6-2 .1 2.6c0 1.2-.3 2.2-1 3l-1.4.8H17V9.8h-2.8z"/><path fill="#106a90" d="M11 14.2c-.4 0-.4-.4-.4-.4v-.7c1.5-1.3 3-3.5 3-6 0-2.6-1.4-4.9-3.4-6.1a6.3 6.3 0 0 0-3.4-1A7 7 0 0 0 0 7c0 1.5.4 3 1 4a6.4 6.4 0 0 0 6.6 3.2v.1c0 1.4 1.2 2 2.6 2s3.4-.7 3.3-3.2c-1 1.2-2.1 1.3-2.6 1.1zm-3.4-4.1L7.5 13c0 .4-.6.6-1 .6-1 0-1.8-1.6-2.2-4 1.5-.7 2.3-.5 2.8-.3s.5.8.5.8zm1.6-.7c-2-1.2-4.4-.5-5-.1v-.6L4 7c0-1.6.2-3.2.6-4.3C5 1.5 5.9.6 6.7.6c.2 0 .4 0 .6.2.6.4 1 1.1 1.5 2 .3 1.2.5 2.7.5 4.3l-.1 2.3z"/><path fill="#dce8f3" d="M24 16.9h-7.1V9.8h5.3c1 0 1.8.8 1.8 1.8v5.3zm-11.9 0c-.5.2-1.2.3-1.9.3h-.4v5c0 1 .8 1.8 1.8 1.8h5.3v-7.1h-4.8z"/></svg>